# xmcd CD database file
#
# Track frame offsets:
#	150
#	19157
#	35340
#	57407
#	72363
#	87518
#	104034
#	121735
#	140623
#	156596
#	170551
#
# Disc length: 2491 seconds
#
# Revision: 0
# Processed by: cddbd v1.5.1PL0 Copyright (c) Steve Scherf et al.
# Submitted via: CDex 1.51
#
DISCID=a009b90b
DTITLE=Mindy Smith - One Moment More
DYEAR=2003
DGENRE=Country
TTITLE0=Come To Jesus
TTITLE1=Falling
TTITLE2=Raggedy Ann
TTITLE3=Fighting for It All
TTITLE4=Train Song
TTITLE5=It's Amazing
TTITLE6=Angel Doves
TTITLE7=Down in Flames
TTITLE8=Hurricane
TTITLE9=Hard to Know
TTITLE10=One Moment More
EXTD=YEAR: 2003
EXTT0=
EXTT1=
EXTT2=
EXTT3=
EXTT4=
EXTT5=
EXTT6=
EXTT7=
EXTT8=
EXTT9=
EXTT10=
PLAYORDER=
